<svg xmlns="http://www.w3.org/2000/svg" width="16" height="16" viewBox="0 0 16 16" fill="none">
  <path d="M7.99939 14C9.30801 13.9997 10.5807 13.5716 11.6234 12.7809C12.6661 11.9902 13.4218 10.8803 13.7751 9.62028C14.1285 8.36027 14.0603 7.01928 13.5808 5.80166C13.1014 4.58404 12.2369 3.55656 11.1193 2.87579C10.0017 2.19503 8.6922 1.89831 7.39031 2.03087C6.08842 2.16342 4.86556 2.71797 3.90808 3.61C2.95061 4.50204 2.31102 5.68265 2.08679 6.97192C1.86256 8.26119 2.06598 9.58841 2.66606 10.7513L1.99939 14L5.24806 13.3333C6.07206 13.7593 7.00806 14 7.99939 14Z" stroke="#151414" stroke-width="1.5" stroke-linecap="round" stroke-linejoin="round"/>
  <path d="M5 8H5.00667V8.00667H5V8ZM8 8H8.00667V8.00667H8V8ZM11 8H11.0067V8.00667H11V8Z" stroke="#151414" stroke-width="2.25" stroke-linejoin="round"/>
</svg>