<svg xmlns="http://www.w3.org/2000/svg" width="16" height="16" viewBox="0 0 16 16" fill="none">
  <g clip-path="url(#clip0_7536_7614)">
    <path d="M4.00715 1.38554C4.89403 -0.204819 5.33712 -1 6 -1C6.66288 -1 7.10597 -0.204819 7.99285 1.38554L8.22245 1.79713C8.47444 2.24932 8.60044 2.47542 8.79643 2.62451C8.99243 2.77361 9.23742 2.82891 9.72741 2.93951L10.1726 3.0403C11.8946 3.4302 12.7548 3.62479 12.9599 4.28348C13.1643 4.94146 12.5777 5.62814 11.4039 7.00081L11.1001 7.3557C10.7669 7.74559 10.5996 7.94089 10.5247 8.18168C10.4498 8.42318 10.475 8.68357 10.5254 9.20366L10.5716 9.67755C10.7487 11.5094 10.8376 12.425 10.3014 12.8317C9.76521 13.2391 8.95883 12.8674 7.34747 12.1254L6.92958 11.9336C6.47179 11.7222 6.24289 11.6172 6 11.6172C5.75711 11.6172 5.52821 11.7222 5.06972 11.9336L4.65323 12.1254C3.04117 12.8674 2.23479 13.2384 1.6993 12.8324C1.16241 12.425 1.25131 11.5094 1.42841 9.67755L1.47461 9.20436C1.52501 8.68357 1.5502 8.42318 1.47461 8.18238C1.40041 7.94089 1.23311 7.74559 0.89992 7.3564L0.596127 7.00081C-0.577745 5.62884 -1.16433 4.94216 -0.959936 4.28348C-0.754841 3.62479 0.106138 3.4295 1.8281 3.0403L2.27329 2.93951C2.76258 2.82891 3.00687 2.77361 3.20357 2.62451C3.39956 2.47542 3.52556 2.24932 3.77755 1.79713L4.00715 1.38554Z" stroke="#151414" stroke-width="1.5"/>
  </g>
  <defs>
    <clipPath id="clip0_7536_7614">
      <rect width="16" height="16" fill="white"/>
    </clipPath>
  </defs>
</svg>