<svg xmlns="http://www.w3.org/2000/svg" width="16" height="14" viewBox="0 0 16 14" fill="none">
  <path fill-rule="evenodd" clip-rule="evenodd" d="M7.99995 5.11328C6.95609 5.11328 6.11328 5.95609 6.11328 6.99995C6.11328 8.04381 6.95609 8.88661 7.99995 8.88661C9.04381 8.88661 9.88661 8.04381 9.88661 6.99995C9.88661 5.95609 9.04381 5.11328 7.99995 5.11328ZM5.11328 6.99995C5.11328 5.40381 6.40381 4.11328 7.99995 4.11328C9.59609 4.11328 10.8866 5.40381 10.8866 6.99995C10.8866 8.59609 9.59609 9.88661 7.99995 9.88661C6.40381 9.88661 5.11328 8.59609 5.11328 6.99995Z" fill="#151414"/>
  <path fill-rule="evenodd" clip-rule="evenodd" d="M1.50489 4.99796C3.09884 2.49238 5.43458 0.97998 7.9999 0.97998C10.5653 0.97998 12.9012 2.49251 14.4951 4.99828C14.8584 5.56784 15.0232 6.29742 15.0232 6.99665C15.0232 7.69588 14.8584 8.42545 14.4951 8.99501C12.9012 11.5008 10.5653 13.0133 7.9999 13.0133C5.43446 13.0133 3.09863 11.5008 1.50468 8.99501C1.14137 8.42545 0.976562 7.69588 0.976562 6.99665C0.976562 6.29728 1.14143 5.56756 1.50489 4.99796ZM7.9999 1.97998C5.85866 1.97998 3.80783 3.24078 2.34844 5.53501L2.34802 5.53566C2.11163 5.90601 1.97656 6.43614 1.97656 6.99665C1.97656 7.55715 2.11163 8.08729 2.34802 8.45763L2.34844 8.45829C3.80783 10.7525 5.85866 12.0133 7.9999 12.0133C10.1411 12.0133 12.192 10.7525 13.6514 8.45829L13.6518 8.45763C13.8882 8.08729 14.0232 7.55715 14.0232 6.99665C14.0232 6.43614 13.8882 5.90601 13.6518 5.53566L13.6514 5.53501C12.192 3.24078 10.1411 1.97998 7.9999 1.97998Z" fill="#151414"/>
</svg>