<svg xmlns="http://www.w3.org/2000/svg" width="16" height="16" viewBox="0 0 16 16" fill="none">
  <path d="M2.1725 2.62565C2.11871 2.67228 2.0755 2.72985 2.04575 2.79452C2.016 2.85919 2.0004 2.92947 2 3.00065V13.5007C2 13.6333 2.05268 13.7604 2.14645 13.8542C2.24021 13.948 2.36739 14.0007 2.5 14.0007C2.63261 14.0007 2.75979 13.948 2.85355 13.8542C2.94732 13.7604 3 13.6333 3 13.5007V10.7363C4.67437 9.41378 6.11687 10.1269 7.77812 10.9494C8.80312 11.4563 9.90687 12.0025 11.0906 12.0025C11.9612 12.0025 12.8744 11.7057 13.8294 10.8775C13.8832 10.8309 13.9264 10.7733 13.9561 10.7087C13.9859 10.644 14.0015 10.5737 14.0019 10.5025V3.00065C14.0016 2.90468 13.9738 2.81081 13.9217 2.73023C13.8695 2.64965 13.7953 2.58578 13.7079 2.54624C13.6204 2.5067 13.5234 2.49316 13.4285 2.50725C13.3336 2.52133 13.2447 2.56243 13.1725 2.62565C11.4225 4.14003 9.94 3.40628 8.22187 2.55565C6.44187 1.67315 4.42375 0.67503 2.1725 2.62565ZM13 10.2663C11.3256 11.5888 9.88312 10.875 8.22187 10.0532C6.65937 9.28128 4.92125 8.42003 3 9.52816V3.23753C4.67437 1.91503 6.11687 2.62815 7.77812 3.45003C9.34062 4.2219 11.0794 5.08315 13 3.97503V10.2663Z" fill="#151414"/>
</svg>