<svg width="76" height="75" viewBox="0 0 76 75" fill="none" xmlns="http://www.w3.org/2000/svg">
<g id="Group 1000001068">
<g id="Group 1000001060">
<rect id="Rectangle 39408" x="3.25144" y="13.2226" width="58.5259" height="58.5259" rx="9.75431" stroke="#960618" stroke-width="6.50287"/>
<path id="Rectangle 39409" d="M47.6875 3.46826H75.8666V27.3121H47.6875V3.46826Z" fill="#FDF0F2"/>
<path id="Rectangle 39410" d="M58.5273 3.25144C58.5273 1.45572 59.9831 0 61.7788 0C63.5745 0 65.0302 1.45572 65.0302 3.25144V26.0115H58.5273V3.25144Z" fill="#960618" fill-opacity="0.5"/>
<path id="Rectangle 39411" d="M71.7466 9.97119C73.5423 9.97119 74.998 11.4269 74.998 13.2226C74.998 15.0183 73.5423 16.4741 71.7466 16.4741L48.9865 16.4741V9.97119L71.7466 9.97119Z" fill="#960618" fill-opacity="0.2"/>
</g>
<path id="Rectangle 39412" d="M8.23633 24.7106C8.23633 21.1192 11.1478 18.2078 14.7392 18.2078H23.4097V67.1961H14.7392C11.1478 67.1961 8.23633 64.2846 8.23633 60.6932V24.7106Z" fill="#960618"/>
<path id="Rectangle 39413" d="M25.1465 18.2078H40.3199V67.1961H25.1465V18.2078Z" fill="#960618" fill-opacity="0.5"/>
<path id="Rectangle 39414" d="M42.0508 18.2078H56.7906V60.6932C56.7906 64.2846 53.8792 67.1961 50.2878 67.1961H42.0508V18.2078Z" fill="#960618" fill-opacity="0.2"/>
</g>
</svg>
